<svg width="22" height="12" viewBox="0 0 22 12" fill="none" xmlns="http://www.w3.org/2000/svg">
<path d="M10.9952 0C10.7516 0 10.5249 0.0383635 10.3149 0.115092C10.105 0.19182 9.90536 0.323354 9.71599 0.509693L0.629777 9.46647C0.350103 9.74249 0.206896 10.0894 0.200157 10.5073C0.193754 10.9248 0.336961 11.2781 0.629777 11.567C0.92293 11.8557 1.27808 12 1.69523 12C2.11239 12 2.46754 11.8557 2.76069 11.567L10.9952 3.44928L19.2298 11.567C19.5098 11.8427 19.8618 11.9839 20.2857 11.9905C20.7092 11.9968 21.0676 11.8557 21.3607 11.567C21.6535 11.2781 21.7999 10.928 21.7999 10.5168C21.7999 10.1055 21.6535 9.75545 21.3607 9.46647L12.2745 0.509693C12.0851 0.323354 11.8855 0.19182 11.6756 0.115092C11.4656 0.0383635 11.2389 0 10.9952 0Z" fill="black"/>
</svg>

