<svg width="209" height="136" viewBox="0 0 209 136" fill="none" xmlns="http://www.w3.org/2000/svg">
<g clip-path="url(#clip0_8_5)">
<mask id="mask0_8_5" style="mask-type:luminance" maskUnits="userSpaceOnUse" x="0" y="0" width="209" height="136">
<path d="M209 0H0V136H209V0Z" fill="white"/>
</mask>
<g mask="url(#mask0_8_5)">
<path d="M205.771 0H3C1.34315 0 0 1.34315 0 3V132.478C0 134.135 1.34315 135.478 3 135.478H205.771C207.428 135.478 208.771 134.135 208.771 132.478V3C208.771 1.34315 207.428 0 205.771 0Z" fill="#F9F9F9"/>
</g>
<g clip-path="url(#clip1_8_5)">
<path d="M124.656 65.1484L123.838 65.1386C123.722 64.1694 123.533 63.2104 123.272 62.2697L124.022 61.959C124.351 61.8222 124.612 61.5606 124.748 61.2314C124.885 60.9023 124.885 60.5325 124.749 60.2032L123.978 58.3414C123.841 58.0122 123.58 57.7506 123.251 57.6142C122.921 57.4778 122.552 57.4778 122.222 57.6141L121.464 57.9179C120.983 57.0683 120.44 56.256 119.837 55.488L120.415 54.9102C120.667 54.6581 120.808 54.3163 120.808 53.96C120.808 53.6037 120.667 53.262 120.415 53.0098L118.99 51.5846C118.734 51.3402 118.394 51.2037 118.04 51.2037C117.686 51.2037 117.346 51.3402 117.09 51.5846L116.505 52.1555C115.736 51.5542 114.923 51.0117 114.073 50.5325L114.386 49.7777C114.522 49.4483 114.522 49.0786 114.385 48.7495C114.249 48.4204 113.988 48.1589 113.659 48.0222L111.797 47.2509C111.634 47.1834 111.459 47.1486 111.282 47.1486C111.106 47.1486 110.931 47.1834 110.768 47.2509C110.605 47.3184 110.457 47.4174 110.332 47.5422C110.207 47.667 110.108 47.8152 110.041 47.9782L109.721 48.7242C108.78 48.4647 107.821 48.2767 106.852 48.1619V47.3438C106.851 46.9875 106.709 46.6459 106.458 46.394C106.206 46.1421 105.864 46.0004 105.508 46H103.492C103.136 46.0004 102.794 46.1421 102.542 46.394C102.291 46.6459 102.149 46.9875 102.148 47.3438L102.139 48.1619C101.17 48.2779 100.21 48.4672 99.2695 48.7282L98.9592 47.9782C98.8228 47.649 98.5612 47.3874 98.232 47.251C97.9027 47.1146 97.5328 47.1146 97.2035 47.2509L95.3411 48.0222C95.0122 48.159 94.7509 48.4206 94.6146 48.7498C94.4782 49.0789 94.478 49.4487 94.614 49.778L94.9177 50.5362C94.0682 51.0166 93.256 51.5603 92.4881 52.1627L91.9102 51.5846C91.6543 51.3402 91.314 51.2037 90.9601 51.2037C90.6061 51.2037 90.2658 51.3402 90.0099 51.5846L88.5846 53.0097C88.3329 53.2619 88.1916 53.6037 88.1916 53.96C88.1916 54.3163 88.3329 54.658 88.5846 54.9102L89.1556 55.4952C88.5543 56.2637 88.0117 57.0764 87.5324 57.9264L86.778 57.6141C86.4488 57.4778 86.0789 57.4777 85.7496 57.6141C85.4204 57.7504 85.1588 58.0119 85.0223 58.3411L84.2507 60.2035C84.1149 60.5328 84.1152 60.9025 84.2515 61.2316C84.3879 61.5607 84.6491 61.8223 84.978 61.959L85.7241 62.2789C85.4645 63.2198 85.2766 64.1791 85.1618 65.1484H84.3438C83.9875 65.1488 83.6459 65.2905 83.394 65.5424C83.1421 65.7944 83.0004 66.1359 83 66.4922V68.5078C83.0004 68.8641 83.1421 69.2056 83.394 69.4576C83.6459 69.7095 83.9875 69.8512 84.3438 69.8516L85.1616 69.8614C85.2778 70.8306 85.467 71.7896 85.7277 72.7303L84.9781 73.041C84.6491 73.1778 84.3878 73.4394 84.2515 73.7686C84.1152 74.0977 84.115 74.4675 84.2509 74.7968L85.0222 76.6586C85.1585 76.9878 85.4201 77.2494 85.7493 77.3858C86.0785 77.5222 86.4484 77.5222 86.7777 77.3859L87.5361 77.0821C88.0165 77.9317 88.5602 78.744 89.1625 79.512L88.5846 80.0898C88.3329 80.342 88.1916 80.6837 88.1916 81.04C88.1916 81.3963 88.3329 81.7381 88.5846 81.9903L90.0097 83.4154C90.2657 83.6598 90.606 83.7963 90.9599 83.7963C91.3138 83.7963 91.6541 83.6598 91.91 83.4154L92.4951 82.8445C93.2638 83.4457 94.0765 83.9883 94.9266 84.4675L94.6138 85.2223C94.478 85.5516 94.4783 85.9214 94.6146 86.2505C94.751 86.5796 95.0123 86.8411 95.3413 86.9778L97.2034 87.7491C97.3664 87.8167 97.5411 87.8515 97.7176 87.8515C97.8941 87.8515 98.0688 87.8168 98.2319 87.7492C98.3949 87.6817 98.5431 87.5827 98.6678 87.4579C98.7926 87.333 98.8915 87.1849 98.959 87.0218L99.2789 86.2758C100.22 86.5354 101.179 86.7233 102.148 86.8381V87.6562C102.149 88.0125 102.291 88.3541 102.542 88.606C102.794 88.8579 103.136 88.9996 103.492 89H105.508C105.864 88.9996 106.206 88.8579 106.458 88.606C106.709 88.3541 106.851 88.0125 106.852 87.6562L106.861 86.8381C107.83 86.7221 108.79 86.5329 109.73 86.2721L110.041 87.0214C110.108 87.1846 110.207 87.3328 110.332 87.4576C110.457 87.5825 110.605 87.6815 110.768 87.7491C110.931 87.8167 111.106 87.8515 111.282 87.8515C111.459 87.8515 111.633 87.8167 111.796 87.7491L113.659 86.9778C113.988 86.841 114.249 86.5794 114.385 86.2502C114.522 85.9211 114.522 85.5513 114.386 85.222L114.082 84.4639C114.932 83.9835 115.744 83.4397 116.512 82.8373L117.09 83.4154C117.346 83.6598 117.686 83.7962 118.04 83.7962C118.394 83.7962 118.734 83.6598 118.99 83.4154L120.415 81.9902C120.667 81.7381 120.808 81.3963 120.808 81.04C120.808 80.6837 120.667 80.342 120.415 80.0898L119.844 79.5048C120.446 78.7363 120.988 77.9236 121.468 77.0736L122.222 77.3859C122.551 77.5222 122.921 77.5223 123.25 77.3859C123.58 77.2496 123.841 76.9881 123.978 76.6589L124.749 74.7965C124.885 74.4672 124.885 74.0975 124.748 73.7684C124.612 73.4393 124.351 73.1777 124.022 73.041L123.276 72.7211C123.535 71.7802 123.723 70.8209 123.838 69.8516H124.656C125.013 69.8512 125.354 69.7095 125.606 69.4576C125.858 69.2056 126 68.8641 126 68.5078V66.4922C126 66.1359 125.858 65.7944 125.606 65.5424C125.354 65.2905 125.013 65.1488 124.656 65.1484ZM124.656 68.5078H123.838C123.509 68.5093 123.191 68.6315 122.945 68.8512C122.699 69.071 122.542 69.3732 122.504 69.7007C122.396 70.5999 122.221 71.4898 121.981 72.3629C121.892 72.6797 121.922 73.018 122.065 73.3142C122.208 73.6105 122.455 73.8443 122.758 73.9717L123.508 74.2824L122.736 76.1445L121.982 75.8322C121.677 75.7078 121.338 75.6989 121.027 75.8073C120.716 75.9157 120.455 76.1338 120.294 76.4207C119.848 77.2091 119.344 77.9631 118.787 78.6765C118.583 78.9352 118.48 79.2595 118.499 79.5884C118.517 79.9174 118.656 80.2281 118.887 80.4622L119.465 81.0402L118.04 82.4653L117.462 81.8873C117.228 81.6555 116.917 81.5173 116.589 81.4987C116.26 81.4801 115.935 81.5824 115.677 81.7862C114.963 82.3442 114.209 82.8483 113.421 83.2943C113.134 83.4555 112.916 83.716 112.807 84.0268C112.699 84.3375 112.708 84.6772 112.832 84.9819L113.145 85.7364L111.282 86.5074L110.972 85.7578C110.844 85.4545 110.611 85.2081 110.314 85.065C110.018 84.9219 109.68 84.8919 109.363 84.9806C108.49 85.2215 107.6 85.3965 106.701 85.5042C106.373 85.5424 106.071 85.6991 105.851 85.9449C105.632 86.1907 105.509 86.5084 105.508 86.8381V87.6562H103.492V86.8381C103.491 86.5083 103.368 86.1906 103.149 85.9448C102.929 85.6991 102.627 85.5423 102.299 85.5042C101.4 85.3965 100.51 85.2215 99.6373 84.9806C99.5189 84.9477 99.3966 84.9311 99.2738 84.931C99.0077 84.9304 98.7474 85.0086 98.5257 85.1557C98.3041 85.3028 98.1309 85.5123 98.0281 85.7577L97.7176 86.5077L95.8554 85.7364L96.168 84.9819C96.2924 84.6771 96.3012 84.3374 96.1928 84.0266C96.0843 83.7158 95.8661 83.4552 95.5791 83.294C94.7908 82.8482 94.0367 82.3442 93.3234 81.7862C93.0646 81.5825 92.7404 81.4804 92.4116 81.499C92.0828 81.5176 91.7721 81.6557 91.538 81.8872L90.96 82.4653L89.5347 81.0399L90.1126 80.4621C90.3444 80.2282 90.4827 79.9175 90.5013 79.5886C90.5199 79.2598 90.4176 78.9354 90.2136 78.6768C89.6556 77.9632 89.1517 77.209 88.7059 76.4204C88.5448 76.1334 88.2844 75.9152 87.9736 75.8068C87.6629 75.6985 87.3232 75.7075 87.0186 75.8322L86.2638 76.1445L85.4925 74.2824L86.2418 73.9717C86.5452 73.8443 86.7916 73.6106 86.9348 73.3143C87.0779 73.0181 87.108 72.6797 87.0193 72.3629C86.7786 71.49 86.6036 70.6003 86.4959 69.7013C86.4578 69.3737 86.301 69.0714 86.0552 68.8515C85.8094 68.6316 85.4916 68.5093 85.1618 68.5078H84.3438V66.4922H85.1618C85.4915 66.4907 85.8092 66.3685 86.055 66.1488C86.3008 65.929 86.4576 65.6268 86.4958 65.2993C86.6035 64.4001 86.7785 63.5102 87.0193 62.6371C87.108 62.3203 87.078 61.982 86.9349 61.6858C86.7917 61.3895 86.5454 61.1557 86.2421 61.0283L85.4923 60.7176L86.2639 58.8555L87.018 59.1678C87.3228 59.292 87.6624 59.3008 87.9732 59.1924C88.284 59.0841 88.5445 58.8661 88.706 58.5793C89.1517 57.7909 89.6556 57.0369 90.2135 56.3235C90.4175 56.0648 90.5199 55.7405 90.5013 55.4116C90.4827 55.0826 90.3445 54.7719 90.1126 54.5378L89.5347 53.9598L90.96 52.5347L91.538 53.1127C91.7721 53.3444 92.0827 53.4825 92.4115 53.5011C92.7403 53.5198 93.0645 53.4176 93.3232 53.2138C94.0368 52.6558 94.7909 52.1517 95.5793 51.7057C95.8662 51.5445 96.0844 51.284 96.1928 50.9732C96.3012 50.6625 96.2924 50.3228 96.168 50.0181L95.8554 49.2636L97.7176 48.492L98.0281 49.2423C98.1557 49.5455 98.3895 49.7918 98.6858 49.9349C98.982 50.078 99.3203 50.1081 99.6371 50.0195C100.51 49.7785 101.4 49.6035 102.299 49.4959C102.627 49.4577 102.929 49.3009 103.149 49.0551C103.369 48.8094 103.491 48.4916 103.492 48.1619V47.3438H105.508V48.1619C105.509 48.4917 105.632 48.8094 105.851 49.0552C106.071 49.3009 106.373 49.4577 106.701 49.4958C107.6 49.6035 108.49 49.7785 109.363 50.0194C109.68 50.1082 110.018 50.0782 110.314 49.9351C110.611 49.7919 110.845 49.5454 110.972 49.2419L111.282 48.4923L113.145 49.2636L112.832 50.0181C112.708 50.3229 112.699 50.6626 112.807 50.9734C112.916 51.2842 113.134 51.5448 113.421 51.706C114.209 52.1518 114.963 52.6558 115.677 53.2138C115.935 53.4177 116.26 53.52 116.588 53.5014C116.917 53.4828 117.228 53.3446 117.462 53.1128L118.04 52.5347L119.465 53.9601L118.887 54.5379C118.656 54.7718 118.517 55.0825 118.499 55.4114C118.48 55.7402 118.582 56.0645 118.786 56.3232C119.344 57.0368 119.848 57.791 120.294 58.5796C120.455 58.8667 120.716 59.0849 121.026 59.1933C121.337 59.3016 121.677 59.2926 121.981 59.1678L122.736 58.8555L123.508 60.7176L122.758 61.0283C122.455 61.1556 122.208 61.3894 122.065 61.6857C121.922 61.9819 121.892 62.3203 121.981 62.6371C122.221 63.51 122.396 64.3997 122.504 65.2987C122.542 65.6263 122.699 65.9286 122.945 66.1485C123.191 66.3684 123.508 66.4907 123.838 66.4922H124.656V68.5078Z" fill="black"/>
<path d="M104.5 51.375C101.311 51.375 98.1932 52.3207 95.5414 54.0926C92.8897 55.8644 90.8229 58.3828 89.6024 61.3292C88.382 64.2757 88.0627 67.5179 88.6848 70.6458C89.307 73.7738 90.8428 76.647 93.0979 78.9021C95.353 81.1572 98.2262 82.693 101.354 83.3152C104.482 83.9373 107.724 83.618 110.671 82.3976C113.617 81.1771 116.136 79.1103 117.907 76.4586C119.679 73.8068 120.625 70.6892 120.625 67.5C120.62 63.2249 118.92 59.1262 115.897 56.1033C112.874 53.0803 108.775 51.3799 104.5 51.375ZM107.053 82.0559C106.431 82.1655 105.803 82.2351 105.172 82.2642V74.8906C105.172 74.7124 105.101 74.5415 104.975 74.4155C104.849 74.2895 104.678 74.2188 104.5 74.2188C104.322 74.2188 104.151 74.2895 104.025 74.4155C103.899 74.5415 103.828 74.7124 103.828 74.8906V82.2642C103.197 82.2351 102.569 82.1655 101.947 82.0559L100.959 74.0817L104.5 73.024L108.041 74.0817L107.053 82.0559ZM102.092 63.9097L103.828 65.157V66.1562C103.828 66.3344 103.899 66.5053 104.025 66.6313C104.151 66.7573 104.322 66.8281 104.5 66.8281C104.678 66.8281 104.849 66.7573 104.975 66.6313C105.101 66.5053 105.172 66.3344 105.172 66.1562V65.157L106.908 63.9097C106.994 63.8474 107.065 63.7655 107.113 63.6706C107.162 63.5758 107.187 63.4707 107.188 63.3641V63.3591L110.694 65.0799C110.748 65.1044 110.795 65.144 110.829 65.194C110.862 65.2441 110.881 65.3025 110.883 65.3627V72.3859C110.881 72.5101 110.851 72.6323 110.793 72.7424C110.735 72.8525 110.652 72.9474 110.551 73.0193C110.427 73.1099 110.283 73.1705 110.131 73.1962C109.979 73.222 109.823 73.2123 109.676 73.168L106.847 72.3229L108.174 71.9266C108.637 71.7971 109.031 71.4938 109.276 71.0799C109.52 70.666 109.595 70.1737 109.485 69.7059C109.416 69.4402 109.288 69.1932 109.111 68.9834V67.1641C109.111 66.9859 109.041 66.815 108.915 66.689C108.789 66.563 108.618 66.4922 108.44 66.4922C108.261 66.4922 108.09 66.563 107.964 66.689C107.838 66.815 107.768 66.9859 107.768 67.1641V68.2907C107.589 68.2731 107.409 68.2799 107.233 68.311L101.232 69.3516V67.1641C101.232 66.9859 101.162 66.815 101.036 66.689C100.91 66.563 100.739 66.4922 100.56 66.4922C100.382 66.4922 100.211 66.563 100.085 66.689C99.9593 66.815 99.8886 66.9859 99.8886 67.1641V70.1501C99.8886 70.248 99.91 70.3448 99.9513 70.4336C99.9927 70.5224 100.053 70.6011 100.128 70.6642C100.203 70.7272 100.291 70.7732 100.385 70.7987C100.48 70.8243 100.579 70.8289 100.675 70.8121L107.472 69.6331C107.619 69.5992 107.773 69.6215 107.905 69.6956C108.036 69.7697 108.134 69.8901 108.181 70.0333C108.208 70.1655 108.182 70.3029 108.109 70.4161C108.035 70.5293 107.921 70.6094 107.789 70.6392L99.324 73.168C99.1765 73.2125 99.0208 73.2222 98.869 73.1964C98.7171 73.1706 98.5733 73.11 98.4489 73.0193C98.3475 72.9474 98.2646 72.8525 98.207 72.7424C98.1493 72.6323 98.1186 72.5101 98.1172 72.3859V65.3627C98.119 65.3025 98.1377 65.2441 98.1711 65.194C98.2046 65.144 98.2515 65.1044 98.3065 65.0799L101.813 63.3591V63.3641C101.813 63.4707 101.838 63.5758 101.887 63.6707C101.935 63.7655 102.006 63.8474 102.092 63.9097ZM104.5 60.7812C103.966 60.7807 103.453 60.5681 103.075 60.1902C102.698 59.8124 102.485 59.3 102.484 58.7656V57.4219C102.484 56.8873 102.697 56.3746 103.075 55.9966C103.453 55.6186 103.965 55.4062 104.5 55.4062C105.035 55.4062 105.547 55.6186 105.925 55.9966C106.303 56.3746 106.516 56.8873 106.516 57.4219V58.7656C106.515 59.3 106.302 59.8124 105.925 60.1902C105.547 60.5681 105.034 60.7807 104.5 60.7812ZM105.844 61.8425V63.0196L104.5 63.9851L103.156 63.0196V61.8425C103.58 62.0288 104.037 62.125 104.5 62.125C104.963 62.125 105.42 62.0288 105.844 61.8425ZM108.446 81.7421L109.347 74.4675C109.688 74.5629 110.046 74.5791 110.393 74.5148C110.741 74.4505 111.07 74.3075 111.354 74.0967C111.624 73.9003 111.843 73.643 111.995 73.3457C112.147 73.0484 112.226 72.7196 112.227 72.3859V65.3627C112.226 65.051 112.137 64.7459 111.971 64.4824C111.804 64.2189 111.567 64.0078 111.286 63.8733L107.188 61.8621V60.7812C107.188 60.7787 107.186 60.7766 107.186 60.7741C107.623 60.1954 107.859 59.4904 107.859 58.7656V57.4219C107.859 56.5309 107.505 55.6764 106.875 55.0464C106.245 54.4164 105.391 54.0625 104.5 54.0625C103.609 54.0625 102.755 54.4164 102.125 55.0464C101.495 55.6764 101.141 56.5309 101.141 57.4219V58.7656C101.141 59.4904 101.377 60.1954 101.814 60.7741C101.814 60.7766 101.813 60.7787 101.813 60.7812V61.8621L97.7143 63.8733C97.4332 64.0078 97.1957 64.2189 97.0293 64.4824C96.8628 64.7459 96.7741 65.051 96.7734 65.3627V72.3859C96.7741 72.7196 96.8535 73.0484 97.0051 73.3457C97.1567 73.643 97.3763 73.9003 97.6461 74.0967C97.9302 74.3075 98.2587 74.4505 98.6065 74.5148C98.9544 74.5791 99.3123 74.5629 99.653 74.4675L100.554 81.7421C97.1082 80.7875 94.1254 78.6165 92.158 75.6312C90.1906 72.6459 89.3718 69.0487 89.8535 65.506C90.3352 61.9633 92.0846 58.7153 94.7776 56.3636C97.4706 54.012 100.925 52.7161 104.5 52.7161C108.075 52.7161 111.529 54.012 114.222 56.3636C116.915 58.7153 118.665 61.9633 119.147 65.506C119.628 69.0487 118.809 72.6459 116.842 75.6312C114.875 78.6165 111.892 80.7875 108.446 81.7421Z" fill="black"/>
<path d="M104.5 50.0312C104.871 50.0312 105.172 49.7304 105.172 49.3594C105.172 48.9883 104.871 48.6875 104.5 48.6875C104.129 48.6875 103.828 48.9883 103.828 49.3594C103.828 49.7304 104.129 50.0312 104.5 50.0312Z" fill="black"/>
<path d="M104.5 86.3125C104.871 86.3125 105.172 86.0117 105.172 85.6406C105.172 85.2696 104.871 84.9688 104.5 84.9688C104.129 84.9688 103.828 85.2696 103.828 85.6406C103.828 86.0117 104.129 86.3125 104.5 86.3125Z" fill="black"/>
<path d="M122.641 68.1719C123.012 68.1719 123.312 67.8711 123.312 67.5C123.312 67.1289 123.012 66.8281 122.641 66.8281C122.27 66.8281 121.969 67.1289 121.969 67.5C121.969 67.8711 122.27 68.1719 122.641 68.1719Z" fill="black"/>
<path d="M86.3594 68.1719C86.7304 68.1719 87.0312 67.8711 87.0312 67.5C87.0312 67.1289 86.7304 66.8281 86.3594 66.8281C85.9883 66.8281 85.6875 67.1289 85.6875 67.5C85.6875 67.8711 85.9883 68.1719 86.3594 68.1719Z" fill="black"/>
<path d="M117.327 55.3445C117.483 55.3445 117.633 55.2906 117.754 55.192C117.874 55.0934 117.956 54.9562 117.986 54.8037C118.017 54.6512 117.993 54.493 117.92 54.3559C117.847 54.2188 117.728 54.1114 117.584 54.0519C117.441 53.9924 117.281 53.9846 117.132 54.0297C116.984 54.0748 116.855 54.1701 116.769 54.2994C116.682 54.4286 116.643 54.5838 116.659 54.7385C116.674 54.8932 116.742 55.0378 116.852 55.1477C116.915 55.2102 116.989 55.2598 117.07 55.2935C117.152 55.3273 117.239 55.3446 117.327 55.3445ZM91.6726 79.6555C91.5172 79.6555 91.3666 79.7094 91.2464 79.808C91.1263 79.9066 91.044 80.0438 91.0137 80.1963C90.9834 80.3488 91.0069 80.507 91.0801 80.6441C91.1534 80.7812 91.272 80.8886 91.4156 80.9481C91.5592 81.0076 91.719 81.0154 91.8677 80.9703C92.0165 80.9252 92.145 80.8299 92.2313 80.7006C92.3177 80.5714 92.3565 80.4162 92.3413 80.2615C92.3261 80.1068 92.2577 79.9622 92.1477 79.8523C92.0854 79.7898 92.0114 79.7402 91.9298 79.7065C91.8483 79.6727 91.7609 79.6554 91.6726 79.6555ZM117.327 79.6555C117.172 79.6555 117.021 79.7094 116.901 79.808C116.781 79.9066 116.699 80.0438 116.668 80.1963C116.638 80.3487 116.662 80.507 116.735 80.6441C116.808 80.7812 116.927 80.8886 117.07 80.9481C117.214 81.0076 117.374 81.0154 117.522 80.9703C117.671 80.9252 117.8 80.8299 117.886 80.7006C117.972 80.5714 118.011 80.4162 117.996 80.2615C117.981 80.1068 117.912 79.9622 117.802 79.8523C117.74 79.7898 117.666 79.7402 117.585 79.7065C117.503 79.6727 117.416 79.6554 117.327 79.6555ZM91.6726 55.3445C91.8281 55.3445 91.9787 55.2906 92.0989 55.192C92.219 55.0934 92.3013 54.9562 92.3316 54.8037C92.3619 54.6512 92.3385 54.493 92.2652 54.3559C92.1919 54.2188 92.0734 54.1114 91.9297 54.0519C91.7861 53.9924 91.6263 53.9846 91.4776 54.0297C91.3288 54.0748 91.2003 54.1701 91.114 54.2994C91.0276 54.4286 90.9888 54.5838 91.004 54.7385C91.0192 54.8932 91.0876 55.0378 91.1976 55.1477C91.2599 55.2102 91.3339 55.2598 91.4155 55.2935C91.497 55.3273 91.5844 55.3446 91.6726 55.3445ZM111.162 51.3514C111.285 51.4021 111.42 51.4153 111.55 51.3892C111.681 51.3631 111.8 51.2989 111.894 51.2048C111.988 51.1107 112.052 50.9908 112.078 50.8604C112.103 50.73 112.09 50.5949 112.039 50.4722C111.988 50.3495 111.901 50.2447 111.791 50.171C111.68 50.0973 111.55 50.0581 111.417 50.0583C111.284 50.0585 111.154 50.0981 111.044 50.1721C110.934 50.2461 110.848 50.3512 110.797 50.4741C110.763 50.5556 110.746 50.6431 110.746 50.7314C110.746 50.8197 110.763 50.9071 110.797 50.9887C110.831 51.0702 110.881 51.1442 110.943 51.2065C111.006 51.2688 111.08 51.318 111.162 51.3514ZM97.8381 83.6486C97.7153 83.5979 97.5801 83.5847 97.4498 83.6108C97.3195 83.6369 97.1998 83.7011 97.106 83.7952C97.0121 83.8893 96.9483 84.0092 96.9225 84.1395C96.8968 84.2699 96.9102 84.4051 96.9613 84.5278C97.0123 84.6505 97.0986 84.7553 97.2092 84.829C97.3199 84.9027 97.4499 84.9419 97.5828 84.9417C97.7157 84.9415 97.8456 84.9019 97.956 84.8279C98.0664 84.7539 98.1523 84.6488 98.203 84.5259C98.237 84.4444 98.2544 84.3569 98.2545 84.2686C98.2545 84.1803 98.237 84.0929 98.2031 84.0113C98.1692 83.9298 98.1195 83.8557 98.0569 83.7935C97.9942 83.7312 97.9199 83.682 97.8381 83.6486ZM121.526 73.797C121.403 73.7463 121.268 73.7332 121.138 73.7593C121.007 73.7854 120.888 73.8495 120.794 73.9436C120.7 74.0377 120.636 74.1576 120.61 74.288C120.585 74.4184 120.598 74.5535 120.649 74.6762C120.7 74.7989 120.786 74.9038 120.897 74.9774C121.008 75.0511 121.138 75.0903 121.271 75.0901C121.403 75.0899 121.533 75.0503 121.644 74.9763C121.754 74.9023 121.84 74.7972 121.891 74.6743C121.925 74.5928 121.942 74.5054 121.942 74.417C121.942 74.3287 121.925 74.2413 121.891 74.1597C121.857 74.0782 121.807 74.0042 121.745 73.9419C121.682 73.8797 121.608 73.8304 121.526 73.797ZM87.4741 61.203C87.597 61.2537 87.7321 61.2668 87.8624 61.2407C87.9928 61.2146 88.1124 61.1505 88.2063 61.0564C88.3001 60.9622 88.364 60.8424 88.3897 60.712C88.4155 60.5816 88.402 60.4465 88.3509 60.3238C88.2999 60.2011 88.2136 60.0962 88.103 60.0226C87.9924 59.9489 87.8624 59.9096 87.7295 59.9098C87.5965 59.9101 87.4667 59.9497 87.3563 60.0237C87.2459 60.0977 87.1599 60.2028 87.1092 60.3257C87.0753 60.4072 87.0578 60.4946 87.0578 60.5829C87.0578 60.6713 87.0752 60.7587 87.1091 60.8402C87.143 60.9218 87.1927 60.9958 87.2554 61.0581C87.318 61.1203 87.3924 61.1696 87.4741 61.203ZM121.25 61.2059C121.394 61.2059 121.535 61.1595 121.65 61.0736C121.766 60.9876 121.851 60.8667 121.893 60.7287C121.935 60.5907 121.931 60.4429 121.883 60.3072C121.834 60.1715 121.743 60.055 121.623 59.9749C121.503 59.8949 121.36 59.8556 121.216 59.8628C121.072 59.87 120.934 59.9233 120.823 60.0149C120.712 60.1065 120.633 60.2315 120.598 60.3714C120.563 60.5113 120.574 60.6587 120.629 60.7919C120.68 60.9147 120.766 61.0196 120.877 61.0933C120.987 61.167 121.117 61.2062 121.25 61.2059ZM87.75 73.7941C87.6058 73.7941 87.4654 73.8405 87.3496 73.9264C87.2338 74.0124 87.1487 74.1333 87.1069 74.2713C87.0651 74.4093 87.0688 74.5571 87.1175 74.6928C87.1661 74.8285 87.2572 74.945 87.3771 75.0251C87.4971 75.1051 87.6396 75.1444 87.7836 75.1372C87.9276 75.13 88.0655 75.0767 88.1769 74.9851C88.2883 74.8935 88.3672 74.7685 88.4021 74.6286C88.437 74.4887 88.4259 74.3413 88.3706 74.2081C88.3198 74.0853 88.2338 73.9804 88.1233 73.9067C88.0127 73.8329 87.8828 73.7938 87.75 73.7941ZM111.466 83.5777C111.322 83.5778 111.181 83.6242 111.065 83.7101C110.95 83.796 110.865 83.9169 110.823 84.0549C110.781 84.1929 110.785 84.3407 110.833 84.4765C110.882 84.6122 110.973 84.7287 111.093 84.8087C111.213 84.8888 111.355 84.9281 111.5 84.9209C111.644 84.9137 111.781 84.8603 111.893 84.7688C112.004 84.6772 112.083 84.5522 112.118 84.4123C112.153 84.2724 112.142 84.1249 112.086 83.9918C112.036 83.869 111.95 83.7641 111.839 83.6904C111.729 83.6166 111.599 83.5774 111.466 83.5777ZM97.5342 51.4223C97.6784 51.4222 97.8187 51.3758 97.9345 51.2899C98.0503 51.204 98.1354 51.0831 98.1772 50.9451C98.219 50.8071 98.2153 50.6593 98.1666 50.5235C98.118 50.3878 98.0269 50.2713 97.907 50.1913C97.787 50.1112 97.6445 50.0719 97.5005 50.0791C97.3565 50.0863 97.2186 50.1397 97.1072 50.2312C96.9959 50.3228 96.9169 50.4478 96.882 50.5877C96.8471 50.7276 96.8582 50.875 96.9135 51.0082C96.9642 51.131 97.0503 51.2359 97.1609 51.3096C97.2714 51.3834 97.4013 51.4226 97.5342 51.4223Z" fill="black"/>
</g>
</g>
<defs>
<clipPath id="clip0_8_5">
<rect width="209" height="136" fill="white"/>
</clipPath>
<clipPath id="clip1_8_5">
<rect width="43" height="43" fill="white" transform="translate(83 46)"/>
</clipPath>
</defs>
</svg>
