<svg width="18" height="18" viewBox="0 0 18 18" fill="none" xmlns="http://www.w3.org/2000/svg">
<path d="M4.49803 5.93213H0.75293V17.1971H4.49803V5.93213Z" fill="white"/>
<path d="M2.65072 0.5C1.36942 0.5 0.532227 1.34237 0.532227 2.44646C0.532227 3.52735 1.34396 4.39296 2.60116 4.39296H2.62535C3.9312 4.39296 4.74403 3.52735 4.74403 2.44646C4.71979 1.34237 3.93129 0.5 2.65072 0.5Z" fill="white"/>
<path d="M13.6888 5.66748C11.7023 5.66748 10.8125 6.75995 10.3142 7.5273V5.93238H6.57007C6.61972 6.98904 6.57007 17.1973 6.57007 17.1973H10.3142V10.9061C10.3142 10.5694 10.3384 10.2328 10.4376 9.99211C10.7078 9.31961 11.3243 8.623 12.3588 8.623C13.7131 8.623 14.2556 9.65638 14.2556 11.1701V17.1973H17.9999V10.7373C17.9999 7.27712 16.1524 5.66748 13.6888 5.66748Z" fill="white"/>
</svg>
