<svg width="209" height="136" viewBox="0 0 209 136" fill="none" xmlns="http://www.w3.org/2000/svg">
<g clip-path="url(#clip0_1_8)">
<path d="M92.244 62.488C92.244 56.1389 97.3909 50.992 103.74 50.992C110.089 50.992 115.236 56.1389 115.236 62.488C115.236 68.8371 110.089 73.984 103.74 73.984C97.3909 73.984 92.244 68.8371 92.244 62.488ZM103.74 56.74C100.565 56.74 97.992 59.3135 97.992 62.488C97.992 65.6625 100.565 68.236 103.74 68.236C106.915 68.236 109.488 65.6625 109.488 62.488C109.488 59.3135 106.915 56.74 103.74 56.74Z" fill="#212121"/>
<path d="M90.492 79.732C88.5882 79.732 86.5216 81.0977 86.3484 83.5079C86.2184 85.3162 86.3787 88.8064 88.9913 91.8574C91.6486 94.9613 96.2905 96.976 103.74 96.976C111.19 96.976 115.831 94.9613 118.489 91.8574C121.101 88.8064 121.262 85.3162 121.132 83.5079C120.959 81.0977 118.892 79.732 116.988 79.732H90.492ZM93.3575 88.1189C92.6346 87.2751 92.2932 86.3318 92.1512 85.48H115.329C115.187 86.3318 114.845 87.2751 114.123 88.1189C112.949 89.4892 110.225 91.228 103.74 91.228C97.255 91.228 94.5308 89.4892 93.3575 88.1189Z" fill="#212121"/>
<path d="M120.493 33.748H123.858C128.62 33.748 132.48 37.6082 132.48 42.37V99.85C132.48 104.612 128.62 108.472 123.858 108.472H83.622C78.8602 108.472 75 104.612 75 99.85V42.37C75 37.6082 78.8602 33.748 83.622 33.748H86.9866C88.1702 30.3992 91.3639 28 95.118 28H112.362C116.116 28 119.31 30.3992 120.493 33.748ZM86.9866 39.496H83.622C82.0347 39.496 80.748 40.7827 80.748 42.37V99.85C80.748 101.437 82.0347 102.724 83.622 102.724H123.858C125.445 102.724 126.732 101.437 126.732 99.85V42.37C126.732 40.7827 125.445 39.496 123.858 39.496H120.493C119.31 42.8448 116.116 45.244 112.362 45.244H95.118C91.3639 45.244 88.1702 42.8448 86.9866 39.496ZM92.244 36.622C92.244 38.2093 93.5307 39.496 95.118 39.496H112.362C113.949 39.496 115.236 38.2093 115.236 36.622C115.236 35.0347 113.949 33.748 112.362 33.748H95.118C93.5307 33.748 92.244 35.0347 92.244 36.622Z" fill="#212121"/>
</g>
<defs>
<clipPath id="clip0_1_8">
<rect width="209" height="136" fill="white"/>
</clipPath>
</defs>
</svg>
