<svg xmlns="http://www.w3.org/2000/svg" viewBox="0 0 120 80" fill="none">
  <rect x="5" y="5" width="110" height="70" rx="4" fill="white" stroke="#d3d3d3" stroke-width="1"/>
  
  <!-- Header Row -->
  <rect x="10" y="10" width="25" height="10" rx="1" fill="#f0f0f0"/>
  <rect x="40" y="10" width="25" height="10" rx="1" fill="#f0f0f0"/>
  <rect x="70" y="10" width="35" height="10" rx="2" fill="#2265CA"/>
  
  <!-- Row 1 -->
  <line x1="10" y1="25" x2="105" y2="25" stroke="#e5e7eb" stroke-width="0.5"/>
  <rect x="10" y="28" width="20" height="6" rx="1" fill="#e5e7eb"/>
  <circle cx="52" cy="31" r="3" fill="none" stroke="#d3d3d3" stroke-width="1"/>
  <line x1="50" y1="29" x2="54" y2="33" stroke="#d3d3d3" stroke-width="1"/>
  <line x1="54" y1="29" x2="50" y2="33" stroke="#d3d3d3" stroke-width="1"/>
  <path d="M85 32 L87 34 L91 29" stroke="#2265CA" stroke-width="1.5" fill="none"/>
  
  <!-- Row 2 -->
  <line x1="10" y1="40" x2="105" y2="40" stroke="#e5e7eb" stroke-width="0.5"/>
  <rect x="10" y="43" width="18" height="6" rx="1" fill="#e5e7eb"/>
  <circle cx="52" cy="46" r="3" fill="none" stroke="#d3d3d3" stroke-width="1"/>
  <line x1="50" y1="44" x2="54" y2="48" stroke="#d3d3d3" stroke-width="1"/>
  <line x1="54" y1="44" x2="50" y2="48" stroke="#d3d3d3" stroke-width="1"/>
  <path d="M85 47 L87 49 L91 44" stroke="#2265CA" stroke-width="1.5" fill="none"/>
  
  <!-- Row 3 -->
  <line x1="10" y1="55" x2="105" y2="55" stroke="#e5e7eb" stroke-width="0.5"/>
  <rect x="10" y="58" width="22" height="6" rx="1" fill="#e5e7eb"/>
  <path d="M50 61 L52 63 L56 58" stroke="#2265CA" stroke-width="1.5" fill="none"/>
  <path d="M85 61 L87 63 L91 58" stroke="#2265CA" stroke-width="1.5" fill="none"/>
</svg>
