<svg width="209" height="136" viewBox="0 0 209 136" fill="none" xmlns="http://www.w3.org/2000/svg">
<mask id="mask0_15_103" style="mask-type:luminance" maskUnits="userSpaceOnUse" x="0" y="0" width="209" height="136">
<path d="M209 0H0V136H209V0Z" fill="white"/>
</mask>
<g mask="url(#mask0_15_103)">
<path d="M205.771 0H3C1.34315 0 0 1.34315 0 3V132.478C0 134.135 1.34315 135.478 3 135.478H205.771C207.428 135.478 208.771 134.135 208.771 132.478V3C208.771 1.34315 207.428 0 205.771 0Z" fill="#F9F9F9"/>
</g>
<path d="M104.481 61.9593C108.733 61.9593 112.18 58.5379 112.18 54.3174C112.18 50.0969 108.733 46.6756 104.481 46.6756C100.229 46.6756 96.7826 50.0969 96.7826 54.3174C96.7826 58.5379 100.229 61.9593 104.481 61.9593Z" fill="#FCC800"/>
<path d="M99.0967 54.3138C99.0967 50.4837 101.935 47.3122 105.638 46.758C105.255 46.7007 104.868 46.6719 104.481 46.672C100.229 46.672 96.7824 50.0933 96.7824 54.3138C96.7824 58.5344 100.229 61.9557 104.481 61.9557C104.874 61.9557 105.261 61.926 105.638 61.8696C101.935 61.3157 99.0967 58.144 99.0967 54.3138Z" fill="#E8E6F4"/>
<path d="M104.481 62.6353C99.8533 62.6353 96.0881 58.904 96.0881 54.3177C96.0881 49.7313 99.8533 46 104.481 46C109.109 46 112.874 49.7313 112.874 54.3177C112.874 58.904 109.109 62.6353 104.481 62.6353ZM104.481 47.3514C100.619 47.3514 97.4767 50.4765 97.4767 54.3174C97.4767 58.1584 100.619 61.2835 104.481 61.2835C108.344 61.2835 111.486 58.1584 111.486 54.3174C111.486 50.4765 108.343 47.3514 104.481 47.3514Z" fill="#44294F"/>
<path d="M113.873 79.1539H95.0114V71.139C95.0114 66.0692 99.2337 61.9595 104.442 61.9595C109.651 61.9595 113.873 66.0692 113.873 71.139V79.1539Z" fill="#8479B9"/>
<path d="M97.326 79.1501V71.1352C97.326 66.4472 100.938 62.5826 105.6 62.0271C105.216 61.9805 104.829 61.9567 104.443 61.9559C99.2339 61.9559 95.0117 66.0656 95.0117 71.1354V79.1503H113.874L97.326 79.1501Z" fill="#E8E6F4"/>
<path d="M113.873 79.8297H95.0117C94.8275 79.8297 94.6509 79.7585 94.5207 79.6318C94.3905 79.5051 94.3174 79.3332 94.3174 79.1539V71.139C94.3174 65.7048 98.8595 61.2837 104.443 61.2837C110.025 61.2837 114.568 65.7048 114.568 71.139V79.1539C114.568 79.3332 114.494 79.5051 114.364 79.6318C114.234 79.7585 114.057 79.8297 113.873 79.8297ZM95.706 78.4781H113.179V71.139C113.179 66.4502 109.26 62.6353 104.443 62.6353C99.6253 62.6353 95.706 66.4502 95.706 71.139V78.4781Z" fill="#44294F"/>
<path d="M107.946 52.407H111.937C111.083 49.1109 108.068 46.6756 104.481 46.6756C103.681 46.6756 102.909 46.797 102.183 47.022C102.364 50.0259 104.874 52.407 107.946 52.407Z" fill="#94D3CC"/>
<path d="M102.183 47.0232C99.6565 47.8066 97.6889 49.8466 97.0249 52.4072H97.5523C99.8394 52.4072 101.814 51.0867 102.749 49.1724C102.42 48.4982 102.228 47.7684 102.183 47.0232Z" fill="#94D3CC"/>
<path d="M111.937 53.0828H107.946C104.529 53.0828 101.693 50.4379 101.49 47.0617C101.481 46.9118 101.523 46.7632 101.611 46.6394C101.698 46.5157 101.825 46.4238 101.972 46.3782C102.784 46.1269 103.63 45.9994 104.481 46C108.315 46 111.658 48.5667 112.611 52.2416C112.636 52.3413 112.639 52.4454 112.617 52.546C112.595 52.6466 112.55 52.7411 112.485 52.8222C112.42 52.9033 112.337 52.9689 112.242 53.0141C112.147 53.0592 112.043 53.0827 111.937 53.0828ZM102.938 47.5212C103.344 49.9214 105.447 51.7312 107.946 51.7312H110.988C109.939 49.1136 107.377 47.3514 104.481 47.3514C103.959 47.3514 103.442 47.4084 102.938 47.5212Z" fill="#44294F"/>
<path d="M97.5523 53.0828H97.0249C96.9193 53.0827 96.815 53.0593 96.7201 53.0141C96.6252 52.969 96.5421 52.9034 96.4771 52.8224C96.4122 52.7412 96.3672 52.6467 96.3455 52.5461C96.3237 52.4455 96.3259 52.3413 96.3517 52.2416C97.0684 49.4783 99.2221 47.232 101.973 46.3791C102.073 46.3478 102.18 46.3394 102.285 46.3544C102.389 46.3695 102.489 46.4076 102.576 46.466C102.664 46.5243 102.736 46.6012 102.788 46.6909C102.84 46.7806 102.87 46.8807 102.876 46.9835C102.915 47.6419 103.085 48.2866 103.376 48.882C103.42 48.9727 103.443 49.0718 103.443 49.1721C103.443 49.2725 103.42 49.3716 103.376 49.4623C102.302 51.6618 100.016 53.0828 97.5523 53.0828ZM101.609 47.9639C99.9685 48.7011 98.6586 50.0568 97.9833 51.7136C99.666 51.5746 101.151 50.626 101.98 49.1519C101.817 48.7685 101.693 48.3706 101.609 47.9639Z" fill="#44294F"/>
<path d="M104.481 64.6341L106.277 62.1379C105.673 62.0193 105.059 61.9595 104.443 61.9593C103.839 61.9593 103.249 62.0179 102.676 62.1258L104.481 64.6341ZM104.481 64.6341L106.406 68.073L104.481 73.8046L102.556 68.073L104.481 64.6341Z" fill="#94D3CC"/>
<path d="M104.481 65.3099C104.37 65.3099 104.26 65.2837 104.161 65.2336C104.062 65.1834 103.977 65.1108 103.913 65.0218L102.107 62.5134C102.041 62.4211 102 62.3141 101.986 62.2022C101.973 62.0902 101.989 61.9769 102.033 61.8725C102.076 61.768 102.146 61.6758 102.235 61.6042C102.324 61.5326 102.431 61.4838 102.544 61.4624C103.823 61.2209 105.137 61.2253 106.414 61.4754C106.527 61.4975 106.633 61.5467 106.722 61.6186C106.81 61.6904 106.879 61.7826 106.922 61.8869C106.965 61.9912 106.98 62.1042 106.967 62.2157C106.954 62.3273 106.912 62.4339 106.846 62.5258L105.05 65.022C104.986 65.1109 104.901 65.1835 104.802 65.2336C104.703 65.2837 104.593 65.3098 104.481 65.3099ZM103.903 62.6522L104.481 63.4562L105.056 62.6569C104.672 62.6297 104.287 62.6281 103.903 62.6522Z" fill="#44294F"/>
<path d="M104.481 74.4804C104.335 74.4804 104.192 74.4354 104.074 74.3517C103.955 74.268 103.867 74.15 103.821 74.0145L101.897 68.2831C101.867 68.1956 101.856 68.1032 101.865 68.0115C101.874 67.9198 101.902 67.8308 101.947 67.7499L103.871 64.311C103.931 64.2044 104.019 64.1155 104.127 64.0535C104.234 63.9915 104.356 63.9588 104.481 63.9588C104.606 63.9588 104.729 63.9915 104.836 64.0535C104.943 64.1155 105.031 64.2044 105.091 64.311L107.015 67.7499C107.061 67.8308 107.088 67.9198 107.097 68.0115C107.106 68.1032 107.095 68.1956 107.066 68.2831L105.141 74.0145C105.096 74.15 105.007 74.2679 104.889 74.3516C104.77 74.4353 104.628 74.4803 104.481 74.4804ZM103.31 68.1403L104.481 71.6292L105.653 68.1403L104.481 66.0469L103.31 68.1403ZM112.253 79.1503H110.865V71.1352C110.865 70.3186 110.707 69.5264 110.396 68.7805L111.683 68.2721C112.062 69.1814 112.256 70.1537 112.254 71.135L112.253 79.1503ZM109.925 67.8747C109.659 67.4538 109.343 67.0646 108.984 66.7151L109.966 65.7595C110.402 66.1841 110.786 66.657 111.109 67.1685L109.925 67.8747Z" fill="#44294F"/>
<path d="M93.1639 71.1298C97.4157 71.1298 100.863 67.7084 100.863 63.4879C100.863 59.2675 97.4157 55.8461 93.1639 55.8461C88.912 55.8461 85.4652 59.2675 85.4652 63.4879C85.4652 67.7084 88.912 71.1298 93.1639 71.1298Z" fill="#FCC800"/>
<path d="M87.7793 63.4877C87.7793 59.6575 90.6181 56.486 94.3208 55.9319C93.9379 55.8746 93.5511 55.8458 93.1637 55.8458C88.9118 55.8458 85.465 59.2672 85.465 63.4877C85.465 67.7083 88.9118 71.1296 93.1637 71.1296C93.5571 71.1296 93.9434 71.0998 94.3208 71.0435C90.6181 70.4896 87.7793 67.3179 87.7793 63.4877Z" fill="#E8E6F4"/>
<path d="M93.1639 71.8056C88.5359 71.8056 84.7707 68.0743 84.7707 63.4877C84.7707 61.2684 85.6421 59.1813 87.2244 57.611C88.8102 56.0371 90.9194 55.1703 93.1637 55.1703C97.7916 55.1703 101.557 58.9016 101.557 63.4879C101.557 68.0743 97.7916 71.8056 93.1639 71.8056ZM93.1639 56.5216C91.2955 56.5216 89.5382 57.2445 88.2158 58.5571C86.8897 59.8733 86.1593 61.6243 86.1593 63.4877C86.1593 67.3289 89.3015 70.454 93.1639 70.454C97.0261 70.454 100.168 67.3289 100.168 63.4879C100.168 59.6467 97.0261 56.5216 93.1639 56.5216Z" fill="#44294F"/>
<path d="M102.556 88.3242H83.6941V80.3093C83.6941 75.2395 87.9164 71.1298 93.125 71.1298C98.3337 71.1298 102.556 75.2395 102.556 80.3093V88.3242Z" fill="#8479B9"/>
<path d="M86.0084 88.3242V80.3093C86.0084 75.6213 89.6199 71.7567 94.2822 71.2012C93.8983 71.1546 93.5119 71.1308 93.125 71.13C87.9164 71.13 83.6941 75.2397 83.6941 80.3095V88.3244H102.556L86.0084 88.3242Z" fill="#E8E6F4"/>
<path d="M102.556 89H83.6943C83.5102 89 83.3336 88.9288 83.2034 88.8021C83.0731 88.6753 83 88.5034 83 88.3242V80.3093C83 74.875 87.5421 70.454 93.1252 70.454C98.7084 70.454 103.25 74.875 103.25 80.3093V88.3242C103.25 88.5034 103.177 88.6753 103.047 88.8021C102.917 88.9288 102.74 89 102.556 89ZM84.3886 87.6484H101.862V80.3093C101.862 75.6204 97.9425 71.8056 93.1252 71.8056C88.3079 71.8056 84.3886 75.6204 84.3886 80.3093V87.6484Z" fill="#44294F"/>
<path d="M100.936 88.3242H99.5473V80.3091C99.5473 79.4921 99.3895 78.6998 99.0787 77.9546L100.365 77.4458C100.744 78.3551 100.938 79.3275 100.936 80.3089L100.936 88.3242ZM98.6077 77.0486C98.3413 76.6277 98.0254 76.2385 97.6662 75.8889L98.6484 74.9334C99.0039 75.2795 99.3248 75.6577 99.6068 76.0629C99.6704 76.1548 99.7322 76.248 99.7917 76.3426L98.6077 77.0486Z" fill="#44294F"/>
<path d="M96.6282 61.5772H100.62C99.7653 58.2812 96.7511 55.8461 93.1639 55.8461C92.3634 55.8461 91.5915 55.9673 90.8658 56.1923C91.0463 59.1964 93.5566 61.5772 96.6282 61.5772Z" fill="#8D386D"/>
<path d="M90.8658 56.1934C88.3392 56.9769 86.3715 59.0169 85.7075 61.5772H86.235C88.522 61.5772 90.4968 60.2567 91.4314 58.3425C91.1022 57.6683 90.9102 56.9386 90.8658 56.1934Z" fill="#8D386D"/>
<path d="M100.62 62.253H96.6282C93.2111 62.253 90.3753 59.6082 90.1724 56.2319C90.1633 56.0821 90.2059 55.9335 90.2932 55.8098C90.3805 55.686 90.5077 55.5941 90.6547 55.5485C91.4656 55.2972 92.3115 55.1695 93.1625 55.1701L93.1637 55.1703C96.9971 55.1703 100.34 57.7367 101.293 61.4119C101.319 61.5116 101.321 61.6157 101.299 61.7163C101.277 61.8169 101.232 61.9114 101.167 61.9925C101.102 62.0736 101.019 62.1392 100.925 62.1844C100.83 62.2295 100.725 62.253 100.62 62.253ZM91.6205 56.6915C92.0262 59.0917 94.1294 60.9015 96.6285 60.9015H99.6707C98.622 58.2841 96.0598 56.5216 93.1639 56.5216H93.1632C92.644 56.5214 92.1265 56.5783 91.6205 56.6915Z" fill="#44294F"/>
<path d="M86.235 62.253H85.7078C85.6021 62.253 85.4979 62.2296 85.403 62.1844C85.308 62.1393 85.225 62.0737 85.16 61.9926C85.0951 61.9114 85.0501 61.817 85.0283 61.7164C85.0066 61.6157 85.0087 61.5116 85.0345 61.4119C85.7511 58.6486 87.9046 56.4022 90.6551 55.5494C90.7559 55.5182 90.8627 55.5098 90.9673 55.5248C91.072 55.5399 91.1717 55.578 91.2589 55.6363C91.3461 55.6946 91.4184 55.7715 91.4704 55.8611C91.5224 55.9508 91.5527 56.0508 91.5589 56.1536C91.5977 56.812 91.7674 57.4569 92.0586 58.0525C92.1028 58.1432 92.1258 58.2422 92.1258 58.3426C92.1258 58.4429 92.1028 58.542 92.0586 58.6326C90.9849 60.8321 88.6991 62.253 86.235 62.253ZM90.2918 57.1341C88.6507 57.8714 87.341 59.2268 86.6659 60.8839C88.3487 60.7449 89.8333 59.7963 90.6628 58.3222C90.5001 57.9387 90.3758 57.5409 90.2918 57.1341Z" fill="#44294F"/>
<path d="M93.1637 73.8044L94.9598 71.3082C94.3558 71.1896 93.7412 71.13 93.125 71.1298C92.521 71.1298 91.931 71.1881 91.3587 71.296L93.1637 73.8044ZM93.1637 73.8044L95.0885 77.2432L93.1637 82.9749L91.2391 77.2432L93.1637 73.8044Z" fill="#8D386D"/>
<path d="M93.1639 74.4804C93.0523 74.4804 92.9424 74.4542 92.8434 74.404C92.7444 74.3539 92.6593 74.2812 92.5953 74.1923L90.7903 71.6839C90.724 71.5916 90.6824 71.4846 90.6694 71.3727C90.6563 71.2607 90.6722 71.1474 90.7156 71.0429C90.7591 70.9385 90.8286 70.8463 90.9179 70.7747C91.0073 70.7031 91.1136 70.6543 91.2273 70.6329C92.5057 70.3915 93.8204 70.396 95.0971 70.6462C95.2101 70.6684 95.3157 70.7176 95.4042 70.7895C95.4928 70.8613 95.5616 70.9535 95.6045 71.0577C95.6473 71.1619 95.6628 71.2749 95.6496 71.3863C95.6363 71.4978 95.5948 71.6044 95.5287 71.6963L93.7325 74.1925C93.6684 74.2813 93.5833 74.3539 93.4843 74.404C93.3853 74.4541 93.2754 74.4803 93.1639 74.4804ZM92.5855 71.8225L93.1639 72.6265L93.739 71.8272C93.3551 71.8003 92.9697 71.7987 92.5855 71.8225Z" fill="#44294F"/>
<path d="M93.1639 83.6507C93.0175 83.6507 92.8748 83.6056 92.7562 83.522C92.6377 83.4383 92.5493 83.3203 92.5038 83.1848L90.5792 77.4534C90.5498 77.3659 90.5391 77.2735 90.5478 77.1818C90.5564 77.0901 90.5842 77.0011 90.6295 76.9202L92.5541 73.4813C92.6137 73.3745 92.7018 73.2854 92.8091 73.2233C92.9165 73.1611 93.039 73.1283 93.1639 73.1283C93.2888 73.1283 93.4113 73.1611 93.5186 73.2233C93.626 73.2854 93.7141 73.3745 93.7737 73.4813L95.6983 76.9202C95.7436 77.0011 95.7714 77.0901 95.78 77.1818C95.7886 77.2735 95.7779 77.3659 95.7485 77.4534L93.8239 83.1848C93.7784 83.3202 93.69 83.4382 93.5715 83.5218C93.4529 83.6055 93.3103 83.6506 93.1639 83.6507ZM91.9921 77.3106L93.1637 80.7997L94.3352 77.3106L93.1637 75.2172L91.9921 77.3106Z" fill="#44294F"/>
<path d="M115.914 71.1298C120.165 71.1298 123.612 67.7084 123.612 63.4879C123.612 59.2675 120.165 55.8461 115.914 55.8461C111.662 55.8461 108.215 59.2675 108.215 63.4879C108.215 67.7084 111.662 71.1298 115.914 71.1298Z" fill="#FCC800"/>
<path d="M110.529 63.4877C110.529 59.6575 113.368 56.486 117.071 55.9319C116.688 55.8746 116.301 55.846 115.914 55.8461C111.662 55.8461 108.215 59.2675 108.215 63.4879C108.215 67.7084 111.662 71.1298 115.914 71.1298C116.307 71.1298 116.693 71.0998 117.071 71.0435C113.368 70.4896 110.529 67.3179 110.529 63.4877Z" fill="#E8E6F4"/>
<path d="M125.306 88.3242H106.444V80.3093C106.444 75.2397 110.666 71.1298 115.875 71.1298C121.083 71.1298 125.306 75.2395 125.306 80.3093V88.3242Z" fill="#8479B9"/>
<path d="M108.758 88.3242V80.3093C108.758 75.6213 112.37 71.7567 117.032 71.2012C116.648 71.1546 116.262 71.1308 115.875 71.13C110.666 71.13 106.444 75.2397 106.444 80.3095V88.3244H125.306L108.758 88.3242Z" fill="#E8E6F4"/>
<path d="M115.913 71.8056C111.286 71.8056 107.52 68.0743 107.52 63.4879C107.52 58.9016 111.286 55.1703 115.914 55.1703C120.541 55.1703 124.307 58.9016 124.307 63.4879C124.307 68.0743 120.541 71.8056 115.913 71.8056ZM115.914 56.5216C112.051 56.5216 108.909 59.6467 108.909 63.4877C108.909 67.3287 112.051 70.4538 115.913 70.4538C119.776 70.4538 122.918 67.3287 122.918 63.4877C122.918 59.6467 119.776 56.5216 115.914 56.5216Z" fill="#44294F"/>
<path d="M125.306 89H106.444C106.26 89 106.083 88.9288 105.953 88.8021C105.823 88.6753 105.75 88.5034 105.75 88.3242V80.3093C105.75 74.875 110.292 70.454 115.875 70.454C121.458 70.454 126 74.875 126 80.3093V88.3242C126 88.413 125.982 88.5009 125.947 88.5829C125.912 88.6649 125.861 88.7394 125.797 88.8022C125.732 88.865 125.656 88.9147 125.571 88.9487C125.487 88.9826 125.397 89.0001 125.306 89ZM107.138 87.6484H124.611V80.3093C124.611 75.6204 120.692 71.8056 115.875 71.8056C111.058 71.8056 107.138 75.6204 107.138 80.3093V87.6484Z" fill="#44294F"/>
<path d="M119.378 61.5775H123.37C122.515 58.2814 119.501 55.8461 115.914 55.8461C115.113 55.8461 114.341 55.9675 113.615 56.1925C113.796 59.1964 116.306 61.5775 119.378 61.5775Z" fill="#EB6B69"/>
<path d="M113.615 56.1934C111.089 56.9769 109.121 59.0169 108.457 61.5775H108.985C111.272 61.5775 113.247 60.257 114.181 58.3427C113.852 57.6685 113.66 56.9386 113.615 56.1934Z" fill="#EB6B69"/>
<path d="M123.37 62.2533H119.378C115.961 62.2533 113.125 59.6084 112.922 56.2319C112.913 56.082 112.956 55.9335 113.043 55.8097C113.13 55.686 113.258 55.594 113.405 55.5485C114.216 55.2971 115.062 55.1697 115.914 55.1703C119.747 55.1703 123.09 57.7369 124.043 61.4119C124.069 61.5116 124.071 61.6157 124.049 61.7163C124.027 61.8169 123.982 61.9114 123.917 61.9925C123.852 62.0736 123.769 62.1392 123.674 62.1844C123.58 62.2296 123.475 62.2531 123.37 62.2533ZM114.37 56.6915C114.776 59.0917 116.879 60.9017 119.378 60.9017H122.42C121.372 58.2841 118.81 56.5219 115.914 56.5219C115.394 56.5214 114.876 56.5783 114.37 56.6915Z" fill="#44294F"/>
<path d="M108.985 62.2533H108.458C108.352 62.2532 108.248 62.2298 108.153 62.1846C108.058 62.1395 107.975 62.0739 107.91 61.9929C107.845 61.9117 107.8 61.8172 107.778 61.7166C107.756 61.616 107.758 61.5118 107.784 61.4121C108.501 58.6488 110.655 56.4025 113.405 55.5496C113.506 55.5183 113.613 55.5098 113.717 55.5249C113.822 55.5399 113.922 55.578 114.009 55.6363C114.096 55.6947 114.169 55.7716 114.221 55.8614C114.273 55.9511 114.303 56.0512 114.309 56.154C114.348 56.8124 114.517 57.4572 114.808 58.0528C114.853 58.1434 114.876 58.2425 114.876 58.3428C114.876 58.4431 114.853 58.5422 114.808 58.6328C113.734 60.8321 111.449 62.2533 108.985 62.2533ZM113.042 57.1341C111.401 57.8714 110.091 59.2271 109.416 60.8839C111.099 60.7449 112.583 59.7963 113.413 58.3222C113.25 57.9387 113.126 57.5409 113.042 57.1341Z" fill="#44294F"/>
<path d="M115.914 73.8046L117.71 71.3084C117.106 71.1898 116.491 71.13 115.875 71.1298C115.271 71.1298 114.681 71.1884 114.109 71.2963L115.914 73.8046ZM115.914 73.8046L117.838 77.2435L115.914 82.9749L113.989 77.2435L115.914 73.8046Z" fill="#EB6B69"/>
<path d="M115.913 74.4804C115.802 74.4804 115.692 74.4542 115.593 74.404C115.494 74.3539 115.409 74.2812 115.345 74.1923L113.54 71.6839C113.473 71.5916 113.432 71.4846 113.419 71.3727C113.406 71.2607 113.422 71.1474 113.465 71.0429C113.509 70.9385 113.578 70.8463 113.667 70.7747C113.757 70.7031 113.863 70.6543 113.977 70.6329C115.255 70.3914 116.57 70.3958 117.847 70.6459C117.96 70.668 118.066 70.7172 118.154 70.7891C118.243 70.8609 118.312 70.9531 118.355 71.0573C118.397 71.1616 118.413 71.2746 118.4 71.3861C118.386 71.4976 118.345 71.6042 118.278 71.6961L116.482 74.1923C116.418 74.2812 116.333 74.3539 116.234 74.404C116.135 74.4542 116.025 74.4804 115.913 74.4804ZM115.335 71.8225L115.913 72.6265L116.489 71.827C116.104 71.8003 115.719 71.7987 115.335 71.8225Z" fill="#44294F"/>
<path d="M115.913 83.6507C115.767 83.6507 115.624 83.6056 115.506 83.522C115.387 83.4383 115.299 83.3203 115.253 83.1848L113.329 77.4534C113.3 77.3659 113.289 77.2735 113.297 77.1818C113.306 77.0901 113.334 77.0011 113.379 76.9202L115.304 73.4813C115.363 73.3746 115.451 73.2855 115.559 73.2234C115.666 73.1614 115.789 73.1286 115.913 73.1286C116.038 73.1286 116.161 73.1614 116.268 73.2234C116.375 73.2855 116.464 73.3746 116.523 73.4813L118.448 76.9202C118.493 77.0011 118.521 77.0901 118.53 77.1818C118.538 77.2735 118.527 77.3659 118.498 77.4534L116.573 83.1848C116.528 83.3203 116.44 83.4383 116.321 83.522C116.203 83.6056 116.06 83.6507 115.913 83.6507ZM114.742 77.3106L115.914 80.7995L117.085 77.3106L115.914 75.2172L114.742 77.3106ZM123.686 88.3242H122.297V80.3091C122.297 79.4925 122.139 78.7002 121.828 77.9544L123.115 77.446C123.494 78.3552 123.688 79.3276 123.686 80.3089L123.686 88.3242ZM121.358 77.0486C121.091 76.6277 120.775 76.2385 120.416 75.8889L121.398 74.9334C121.835 75.3581 122.218 75.8311 122.542 76.3426L121.358 77.0486Z" fill="#44294F"/>
</svg>
